# xmcd CD database file
#
# Track frame offsets:
#	150
#	18577
#	31812
#	47345
#	67295
#	76970
#	95472
#	114892
#	132727
#	145332
#	162160
#	174205
#
# Disc length: 2574 seconds
#
# Revision: 0
# Processed by: cddbd v1.5.1PL0 Copyright (c) Steve Scherf et al.
# Submitted via: CDex 1.50
#
DISCID=990a0c0c
DTITLE=さだまさし - せせらぎ／グレープ
DYEAR=1900
DGENRE=JPop
TTITLE0=ほおずき
TTITLE1=恋人擬
TTITLE2=絆
TTITLE3=交響楽
TTITLE4=ゆだねられた悲しみ
TTITLE5=女郎花
TTITLE6=追伸
TTITLE7=掌
TTITLE8=ラウドネス
TTITLE9=残像
TTITLE10=殺風景
TTITLE11=風邪
EXTD=
EXTT0=
EXTT1=
EXTT2=
EXTT3=
EXTT4=
EXTT5=
EXTT6=
EXTT7=
EXTT8=
EXTT9=
EXTT10=
EXTT11=
PLAYORDER=
